<svg xmlns="http://www.w3.org/2000/svg" xmlns:xlink="http://www.w3.org/1999/xlink" viewBox="0 0 500 500"><defs><clipPath id="freepik--clip-path--inject-130"><path d="M271.83,296.9s-1.29,17.31-1.93,30.77-.16,17.63,1.77,22.76,3.52,5.61,4.8,15.54-3.68,32.22-4.16,40.71-4.81,19.55-5.13,22.44.16,6.73-1.76,8.81-4,1.76-10.42.48-7.85-2.08-13.14-1.12-12,1.12-14.11-.32-2.88-4-1.12-4.17a34.13,34.13,0,0,0,15.23-5.93c6.57-4.65,9.29-9.13,12-17s1.6-31.41,1.6-38.14-9.46-21.15-11.22-36.38-.48-34.93-.48-44.71,1.44-32.53,1.44-32.53l31.25-3.53s3.85,8.66,1.29,20.68A200.33,200.33,0,0,1,271.83,296.9Z" style="fill:#B2D3EF;stroke:#263238;stroke-linecap:round;stroke-linejoin:round"></path></clipPath><clipPath id="freepik--clip-path-2--inject-130"><path d="M287.14,167.86s4.47,1.17,3.5,13.61,0,20.41-9.33,34.41C276.4,223.23,271,229.09,273,238s9.91,15.75,10.88,29.16-4.66,18.66-8.16,24.3-9.33,23.91-10.11,35.18.2,16.33,1.56,21.19,9.13,13,9.91,24.88a124.17,124.17,0,0,1-2.72,33.82c-2.14,9.53-3.3,18.66-3.3,18.66a22.89,22.89,0,0,1-8.75,1.17c-5.44-.19-7.58-1.36-7.58-1.36s.58-26-1-36.54-4.67-22-7.59-31.88S234.66,331,234.27,316,238,276.52,238,271.27s-.58-15.94,1.94-22.54,9.33-29.94,9.33-35-4.47-9.72-.38-18.08,18.46-22,24.68-25.66S284.42,166.5,287.14,167.86Z" style="fill:#B2D3EF;stroke:#263238;stroke-linecap:round;stroke-linejoin:round"></path></clipPath><clipPath id="freepik--clip-path-3--inject-130"><path d="M290.64,181.47c1-12.44-3.5-13.61-3.5-13.61-2.72-1.36-7.39-1.55-13.61,2.14s-20.6,17.3-24.68,25.66.38,13,.38,18.08-6.8,28.38-9.33,35a31.65,31.65,0,0,0-1.64,7.77A47.32,47.32,0,0,0,257.59,259a59.16,59.16,0,0,0,22.4-5.64c-2.67-5.57-5.9-10.09-7-15.36-1.94-8.94,3.45-14.8,8.36-22.15C290.64,201.88,289.67,193.91,290.64,181.47Z" style="fill:#b8b8b8;stroke:#263238;stroke-linecap:round;stroke-linejoin:round"></path></clipPath><clipPath id="freepik--clip-path-4--inject-130"><path d="M287.33,181.66s-2.33,7-6.8,16.92-22.94,37.71-25.27,38.29-12-5.83-18.27-13.8-16.72-19.44-16.52-22.36,4.27-6.41,5.83-6.22,6.41,5.06,12.24,10.31a31.74,31.74,0,0,0,12.64,6.8l15.94-36.93S272,165.92,278,165s12.25,3.11,11.47,9.91" style="fill:#b8b8b8;stroke:#263238;stroke-linecap:round;stroke-linejoin:round"></path></clipPath></defs><g id="freepik--background-simple--inject-130"><path d="M103,165.21S61.9,223.88,57.54,282.29,86.06,394.86,143.11,417.4s119.56-18.47,188.83-22.2,126.83-42,122.21-111.27S399,215.24,356.93,155,203.71,33.44,103,165.21Z" style="fill:#B2D3EF"></path><path d="M103,165.21S61.9,223.88,57.54,282.29,86.06,394.86,143.11,417.4s119.56-18.47,188.83-22.2,126.83-42,122.21-111.27S399,215.24,356.93,155,203.71,33.44,103,165.21Z" style="fill:#fff;opacity:0.7000000000000001"></path></g><g id="freepik--Stars--inject-130"><path d="M237.32,76A126.17,126.17,0,0,0,201.7,94.29l.8,6.62a126.42,126.42,0,0,1,35.62-18.32,138.34,138.34,0,0,1,77.39-3l-.8-6.63A138.43,138.43,0,0,0,237.32,76Z" style="fill:#b8b8b8;stroke:#a6a6a6;stroke-linecap:round;stroke-linejoin:round"></path><path d="M238.12,82.59a126.42,126.42,0,0,0-35.62,18.32l.79,6.63a126.36,126.36,0,0,1,35.63-18.32,138.43,138.43,0,0,1,77.39-3l-.8-6.62A138.34,138.34,0,0,0,238.12,82.59Z" style="fill:#fff;stroke:#a6a6a6;stroke-linecap:round;stroke-linejoin:round"></path><path d="M238.92,89.22a126.36,126.36,0,0,0-35.63,18.32l.8,6.62a126.62,126.62,0,0,1,35.63-18.32,138.34,138.34,0,0,1,77.39-3l-.8-6.63A138.43,138.43,0,0,0,238.92,89.22Z" style="fill:#b8b8b8;stroke:#a6a6a6;stroke-linecap:round;stroke-linejoin:round"></path><path d="M239.72,95.84a126.62,126.62,0,0,0-35.63,18.32l.8,6.62a126.34,126.34,0,0,1,35.63-18.31,138.34,138.34,0,0,1,77.39-3l-.8-6.64A138.34,138.34,0,0,0,239.72,95.84Z" style="fill:#fff;stroke:#a6a6a6;stroke-linecap:round;stroke-linejoin:round"></path><path d="M240.52,102.47a126.34,126.34,0,0,0-35.63,18.31l.8,6.63a126.3,126.3,0,0,1,35.62-18.32,138.46,138.46,0,0,1,77.4-3l-.8-6.61A138.34,138.34,0,0,0,240.52,102.47Z" style="fill:#b8b8b8;stroke:#a6a6a6;stroke-linecap:round;stroke-linejoin:round"></path><path d="M340.54,81l-6.07,9.33a2.7,2.7,0,0,0-.23,2.5l4.24,10.29a2.69,2.69,0,0,1-3.19,3.63l-10.75-2.89a2.72,2.72,0,0,0-2.45.55l-8.47,7.22a2.7,2.7,0,0,1-4.45-1.92l-.57-11.11a2.71,2.71,0,0,0-1.28-2.16l-9.48-5.83a2.7,2.7,0,0,1,.44-4.82l10.4-4A2.7,2.7,0,0,0,310.34,80L313,69.14a2.7,2.7,0,0,1,4.72-1.07l7,8.66a2.7,2.7,0,0,0,2.31,1l11.09-.85A2.7,2.7,0,0,1,340.54,81Z" style="fill:#B2D3EF;stroke:#a6a6a6;stroke-linecap:round;stroke-linejoin:round"></path><path d="M332,127.55,328.23,132a1.42,1.42,0,0,0-.28,1.28l1.55,5.59a1.4,1.4,0,0,1-1.88,1.68l-5.38-2.16a1.37,1.37,0,0,0-1.3.13l-4.83,3.2a1.4,1.4,0,0,1-2.18-1.27l.39-5.78a1.39,1.39,0,0,0-.52-1.2l-4.55-3.61a1.4,1.4,0,0,1,.54-2.46l5.62-1.41a1.42,1.42,0,0,0,1-.88l2-5.43a1.41,1.41,0,0,1,2.51-.26l3.07,4.92a1.42,1.42,0,0,0,1.14.66l5.79.25A1.4,1.4,0,0,1,332,127.55Z" style="fill:#B2D3EF;stroke:#a6a6a6;stroke-linecap:round;stroke-linejoin:round"></path><path d="M211.26,107.36a14.09,14.09,0,0,0-2.16.18c0-.49.07-1,.07-1.49a17.49,17.49,0,0,0-34.93-1.35,15.14,15.14,0,1,0,6.89,25.47,13,13,0,0,0,18.79-.35,14.1,14.1,0,1,0,11.34-22.46Z" style="fill:#fff;stroke:#a6a6a6;stroke-linecap:round;stroke-linejoin:round"></path></g><g id="freepik--Cradle--inject-130"><path d="M147.77,281.38V200.86a14.49,14.49,0,0,1,14.49-14.49h0a14.5,14.5,0,0,1,14.5,14.49v6.47" style="fill:none;stroke:#263238;stroke-linecap:round;stroke-linejoin:round;stroke-width:4px"></path><line x1="176.41" y1="209.42" x2="176.41" y2="241.56" style="fill:none;stroke:#263238;stroke-linecap:round;stroke-linejoin:round"></line><line x1="161.39" y1="232.82" x2="161.39" y2="248.54" style="fill:none;stroke:#263238;stroke-linecap:round;stroke-linejoin:round"></line><line x1="196.32" y1="217.46" x2="161.39" y2="232.82" style="fill:none;stroke:#263238;stroke-linecap:round;stroke-linejoin:round;stroke-width:4px"></line><line x1="196.32" y1="235.27" x2="196.32" y2="217.46" style="fill:none;stroke:#263238;stroke-linecap:round;stroke-linejoin:round"></line><path d="M180.25,209.42a3.84,3.84,0,1,0-3.84,3.84A3.84,3.84,0,0,0,180.25,209.42Z" style="fill:#B2D3EF;stroke:#263238;stroke-linecap:round;stroke-linejoin:round"></path><polygon points="172.87 253.98 167.95 259.86 170 267.25 162.89 264.39 156.5 268.62 157.02 260.97 151.02 256.21 158.46 254.34 161.14 247.16 165.21 253.66 172.87 253.98" style="fill:#B2D3EF;stroke:#263238;stroke-linecap:round;stroke-linejoin:round"></polygon><circle cx="171.33" cy="244.56" r="3.86" style="fill:#fff;stroke:#263238;stroke-linecap:round;stroke-linejoin:round"></circle><circle cx="176.71" cy="241.17" r="4.45" style="fill:#fff;stroke:#263238;stroke-linecap:round;stroke-linejoin:round"></circle><circle cx="181.7" cy="245.09" r="3.59" style="fill:#fff;stroke:#263238;stroke-linecap:round;stroke-linejoin:round"></circle><path d="M179.7,245a3.32,3.32,0,1,1-3.32-3.33A3.32,3.32,0,0,1,179.7,245Z" style="fill:#fff;stroke:#263238;stroke-linecap:round;stroke-linejoin:round"></path><path d="M192.74,232.8a9.15,9.15,0,0,0-2.17.27,8.89,8.89,0,0,1-1.92,16.52,8.89,8.89,0,1,0,4.09-16.79Z" style="fill:#fff;stroke:#263238;stroke-linecap:round;stroke-linejoin:round"></path><path d="M154.21,354H354.4a11.34,11.34,0,0,1,11.34,11.34V382.8a0,0,0,0,1,0,0H142.87a0,0,0,0,1,0,0V365.29A11.34,11.34,0,0,1,154.21,354Z" style="fill:#B2D3EF;stroke:#263238;stroke-linecap:round;stroke-linejoin:round"></path><path d="M180.28,354h-31.6a5.65,5.65,0,0,0-5.81,5.46V382.8h37.41Z" style="fill:#fff;stroke:#263238;stroke-linecap:round;stroke-linejoin:round"></path><rect x="149.02" y="282.8" width="4.1" height="99.52" style="fill:#fff;stroke:#263238;stroke-linecap:round;stroke-linejoin:round"></rect><rect x="160.41" y="282.8" width="4.1" height="99.52" style="fill:#fff;stroke:#263238;stroke-linecap:round;stroke-linejoin:round"></rect><rect x="171.79" y="282.8" width="4.1" height="99.52" style="fill:#fff;stroke:#263238;stroke-linecap:round;stroke-linejoin:round"></rect><rect x="183.18" y="282.8" width="4.1" height="99.52" style="fill:#fff;stroke:#263238;stroke-linecap:round;stroke-linejoin:round"></rect><rect x="194.56" y="282.8" width="4.1" height="99.52" style="fill:#fff;stroke:#263238;stroke-linecap:round;stroke-linejoin:round"></rect><rect x="205.95" y="282.8" width="4.1" height="99.52" style="fill:#fff;stroke:#263238;stroke-linecap:round;stroke-linejoin:round"></rect><rect x="217.34" y="282.8" width="4.1" height="99.52" style="fill:#fff;stroke:#263238;stroke-linecap:round;stroke-linejoin:round"></rect><rect x="228.72" y="282.8" width="4.1" height="99.52" style="fill:#fff;stroke:#263238;stroke-linecap:round;stroke-linejoin:round"></rect><rect x="240.11" y="282.8" width="4.1" height="99.52" style="fill:#fff;stroke:#263238;stroke-linecap:round;stroke-linejoin:round"></rect><rect x="251.49" y="282.8" width="4.1" height="99.52" style="fill:#fff;stroke:#263238;stroke-linecap:round;stroke-linejoin:round"></rect><rect x="262.88" y="282.8" width="4.1" height="99.52" style="fill:#fff;stroke:#263238;stroke-linecap:round;stroke-linejoin:round"></rect><rect x="274.26" y="282.8" width="4.1" height="99.52" style="fill:#fff;stroke:#263238;stroke-linecap:round;stroke-linejoin:round"></rect><rect x="285.65" y="282.8" width="4.1" height="99.52" style="fill:#fff;stroke:#263238;stroke-linecap:round;stroke-linejoin:round"></rect><rect x="297.03" y="282.8" width="4.1" height="99.52" style="fill:#fff;stroke:#263238;stroke-linecap:round;stroke-linejoin:round"></rect><rect x="308.42" y="282.8" width="4.1" height="99.52" style="fill:#fff;stroke:#263238;stroke-linecap:round;stroke-linejoin:round"></rect><rect x="319.8" y="282.8" width="4.1" height="99.52" style="fill:#fff;stroke:#263238;stroke-linecap:round;stroke-linejoin:round"></rect><rect x="331.19" y="282.8" width="4.1" height="99.52" style="fill:#fff;stroke:#263238;stroke-linecap:round;stroke-linejoin:round"></rect><rect x="342.58" y="282.8" width="4.1" height="99.52" style="fill:#fff;stroke:#263238;stroke-linecap:round;stroke-linejoin:round"></rect><rect x="353.96" y="282.8" width="4.1" height="99.52" style="fill:#fff;stroke:#263238;stroke-linecap:round;stroke-linejoin:round"></rect><rect x="142.87" y="281.36" width="222.87" height="3.85" style="fill:#fff;stroke:#263238;stroke-linecap:round;stroke-linejoin:round"></rect><rect x="142.87" y="379.92" width="222.87" height="13.94" style="fill:#fff;stroke:#263238;stroke-linecap:round;stroke-linejoin:round"></rect><rect x="136.73" y="244.33" width="6.15" height="188.47" style="fill:#fff;stroke:#263238;stroke-linecap:round;stroke-linejoin:round"></rect><rect x="136.73" y="261.25" width="6.15" height="171.55" style="fill:#fff;stroke:#263238;stroke-linecap:round;stroke-linejoin:round"></rect><rect x="364.72" y="244.33" width="6.15" height="188.47" style="fill:#fff;stroke:#263238;stroke-linecap:round;stroke-linejoin:round"></rect><rect x="364.72" y="261.25" width="6.15" height="171.55" style="fill:#fff;stroke:#263238;stroke-linecap:round;stroke-linejoin:round"></rect></g><g id="freepik--Floor--inject-130"><line x1="68" y1="432.8" x2="451" y2="432.8" style="fill:none;stroke:#263238;stroke-linecap:round;stroke-linejoin:round"></line></g><g id="freepik--Character--inject-130"><ellipse cx="253" cy="441.67" rx="48" ry="7.33" style="fill:#B2D3EF"></ellipse><ellipse cx="253" cy="441.67" rx="48" ry="7.33" style="fill:#fff;opacity:0.5"></ellipse><path d="M229.21,238.21s-6.2,6.89-8.5,8.73-1.61,3.68-.11,5.17,4.82,3.56,7,5.06,4.49.57,4.71,0-3.33-6.55-3.33-6.55l-.34-1.26a69.8,69.8,0,0,1,6.43-6.21c2.53-2,4.83-3.1,3.79-6.66s-4.71-4.83-6.09-4.14S229.21,238.21,229.21,238.21Z" style="fill:#fff;stroke:#263238;stroke-linecap:round;stroke-linejoin:round"></path><path d="M228.87,191.22a40.07,40.07,0,0,0-10.8,16.43c-3.33,10.11-3.1,17.58,2.64,22.29S231.4,233,231.4,233l4.48,4.83a38.42,38.42,0,0,0-5.4,10.11c-2.19,6.09-5.06,7.23-5.17,8.84s.92,3.45,3.67,5.52,3.22,2.87,5.17,3.1,3.79-.23,4-.69-.69-2.07-1.26-3-2.3-5.63-2.3-5.63a59,59,0,0,0,11.15-11.83c4.25-6.43,5.74-10.8,4.48-15.74s-7.7-8.73-7.7-8.73,3.22-8,3.1-12-5.28-12.17-8.73-14.82S230.94,189.73,228.87,191.22Z" style="fill:#fff;stroke:#263238;stroke-linecap:round;stroke-linejoin:round"></path><path d="M245.12,221.67a23.82,23.82,0,0,0-2.58-1.84s3.22-8,3.1-12-5.28-12.17-8.73-14.82-6-3.33-8-1.84a40.07,40.07,0,0,0-10.8,16.43c-3.33,10.11-3.1,17.58,2.64,22.29,4.15,3.4,7.87,3.51,9.62,3.3,2.35-3.61,7-9.63,12.72-11A20.32,20.32,0,0,0,245.12,221.67Z" style="fill:#B2D3EF;stroke:#263238;stroke-linecap:round;stroke-linejoin:round"></path><ellipse cx="220.7" cy="236.02" rx="7.51" ry="8.03" style="fill:#b8b8b8;stroke:#263238;stroke-linecap:round;stroke-linejoin:round"></ellipse><path d="M217.72,227.76a35.89,35.89,0,0,0,3.45-5.63c.69-1.5,6.32-4.14,6.66-3.56s.23,1.49-.8,2.87-3.22,2.76-3.33,3.1-.81,3.68-.81,3.68a82,82,0,0,1,6-6.21c1.95-1.61,4.82-3.33,5.17-3a3.5,3.5,0,0,1,.46,1.49s2.64-1,3,.34a2.36,2.36,0,0,1-.49,2.21s2.91.09,2.33,2.39a9.08,9.08,0,0,1-1.84,3.68,9.64,9.64,0,0,1-1,4.48c-1.15,2.18-3,5.4-6.43,6.66s-10.23,1-12.87-.46-1.26-4.94-.69-7.58A37.47,37.47,0,0,1,217.72,227.76Z" style="fill:#fff;stroke:#263238;stroke-linecap:round;stroke-linejoin:round"></path><path d="M234.5,220.52s-5.4,6.09-6.44,7.12-1.49,1.61-1.49,1.61" style="fill:#fff;stroke:#263238;stroke-linecap:round;stroke-linejoin:round"></path><line x1="236.99" y1="223.07" x2="230.59" y2="231.2" style="fill:#fff;stroke:#263238;stroke-linecap:round;stroke-linejoin:round"></line><line x1="237.48" y1="229.14" x2="234.04" y2="233.39" style="fill:#fff;stroke:#263238;stroke-linecap:round;stroke-linejoin:round"></line><path d="M226.8,170.56a14.94,14.94,0,0,1,11-7.94c7.35-1,11.95,1.15,14.59,4.25s2.07,9,2.3,10c.19.86,1.38,1.45,1.91,2.09,2.64,3.23-.18,9-2.61,11.61A14.85,14.85,0,0,1,242.61,195c-4.52-.18-10.25-1.47-13.57-4.73C223.7,185,223.44,176.72,226.8,170.56Z" style="fill:#fff;stroke:#263238;stroke-linecap:round;stroke-linejoin:round"></path><path d="M242.31,180s1.61-2.19,3.56-1.38" style="fill:none;stroke:#263238;stroke-linecap:round;stroke-linejoin:round"></path><path d="M245,173.88a3.56,3.56,0,0,0-3.9,1.61" style="fill:none;stroke:#263238;stroke-linecap:round;stroke-linejoin:round"></path><path d="M250.47,177.32a2.81,2.81,0,0,1,3-.69" style="fill:none;stroke:#263238;stroke-linecap:round;stroke-linejoin:round"></path><path d="M249.78,173.53a2.76,2.76,0,0,1,3.9-.92" style="fill:none;stroke:#263238;stroke-linecap:round;stroke-linejoin:round"></path><path d="M250.93,180.54a2,2,0,0,1,0,2,1.86,1.86,0,0,1-2.53.69" style="fill:none;stroke:#263238;stroke-linecap:round;stroke-linejoin:round"></path><path d="M244.61,184.91a4.93,4.93,0,0,0,4.48.8" style="fill:none;stroke:#263238;stroke-linecap:round;stroke-linejoin:round"></path><path d="M296.66,141.23s8.75-.39,12.83,9.14.78,15.55-1.94,19.24-.39,5.06,4.28,6.81,11.85,14.57,6.41,23.13-14,7.38-14,11.47,1,12-8.55,15.74-19.05-1.36-20.21-8.75,6.22-23.71,5.44-30.71-4.67-13.8-7.58-14.38-11.08.58-11.86-4.86,2.92-15.55,1.36-21.38-7.19-10.11-10.69-10.11,4.47-5.83,15-3.5,21.57,8.75,25.07,9.33S296.66,141.23,296.66,141.23Z" style="fill:#263238;stroke:#263238;stroke-linecap:round;stroke-linejoin:round"></path><path d="M244,121.41s-5.25-1.17-11.86,2.52-4.86,14.58.39,17.89,11.08,1.75,12.83.19-2.14-9.33.39-13S247.49,122.18,244,121.41Z" style="fill:#263238;stroke:#263238;stroke-linecap:round;stroke-linejoin:round"></path><path d="M241.85,135c-.39.59-1,9.14.19,11.86s3.89,5.25,3.31,7.77-2.34,5.64-1.36,6.81,5,1.75,5,1.75,0,3.3.58,3.69a5.25,5.25,0,0,0,1.56.58s-.39,1.17.58,1.56a6.63,6.63,0,0,0,2.14.39s2.92,2.14,5.25,1.94a5.53,5.53,0,0,0,4.47-3.3c.58-1.36,4.28-15.94,2.33-24.69s-13.61-11.08-18.08-10.88S241.85,135,241.85,135Z" style="fill:#fff;stroke:#263238;stroke-linecap:round;stroke-linejoin:round"></path><line x1="249.04" y1="149.79" x2="249.82" y2="152.31" style="fill:none;stroke:#263238;stroke-linecap:round;stroke-linejoin:round"></line><path d="M248.85,152.51s1.55,1,4.08-1.17" style="fill:none;stroke:#263238;stroke-linecap:round;stroke-linejoin:round"></path><path d="M246.32,146.87s-1.17-2.53,3.89-1.94" style="fill:none;stroke:#263238;stroke-linecap:round;stroke-linejoin:round"></path><path d="M247.87,122.18s-4.86-3.5-10.3,2.72.58,10.31,3.89,11.67,9.14-.59,9.14-.59,4.27,6.81,7.58,7.78,5.24,1.17,3.3,8.55-3.69,13-1.75,17.69,7,10.89,25.47,6.61,21.57-21,17.1-29.93S291,141.82,290.05,135.4s.59-15-10.49-20.41S253.71,111.3,247.87,122.18Z" style="fill:#263238;stroke:#263238;stroke-linecap:round;stroke-linejoin:round"></path><path d="M309.81,201.05a8.61,8.61,0,0,1-2.4,2.06" style="fill:none;stroke:#b8b8b8;stroke-linecap:round;stroke-linejoin:round"></path><path d="M272.94,147.75c5.87-.05,11.49-1.5,17.24,5.78,7.95,10.08,3.18,12.2,2.91,18.3s4.78,9.27,11.93,11.4c5.2,1.53,8.16,8.94,6.45,14.6" style="fill:none;stroke:#b8b8b8;stroke-linecap:round;stroke-linejoin:round"></path><path d="M258.89,136s-1.32,7.15,7.16,10.6a14.49,14.49,0,0,0,1.9.62" style="fill:none;stroke:#b8b8b8;stroke-linecap:round;stroke-linejoin:round"></path><path d="M267,122.73a11.49,11.49,0,0,1,6,5.88c5.31,10.34,4.51,15.38,18,18s16.7,9.54,15.64,17.23-6.89,10.08-3.44,13.79,11.93.79,14.05,10.07" style="fill:none;stroke:#b8b8b8;stroke-linecap:round;stroke-linejoin:round"></path><path d="M258.1,123.31a12.51,12.51,0,0,1,3.4-1.07" style="fill:none;stroke:#b8b8b8;stroke-linecap:round;stroke-linejoin:round"></path><path d="M271.83,296.9s-1.29,17.31-1.93,30.77-.16,17.63,1.77,22.76,3.52,5.61,4.8,15.54-3.68,32.22-4.16,40.71-4.81,19.55-5.13,22.44.16,6.73-1.76,8.81-4,1.76-10.42.48-7.85-2.08-13.14-1.12-12,1.12-14.11-.32-2.88-4-1.12-4.17a34.13,34.13,0,0,0,15.23-5.93c6.57-4.65,9.29-9.13,12-17s1.6-31.41,1.6-38.14-9.46-21.15-11.22-36.38-.48-34.93-.48-44.71,1.44-32.53,1.44-32.53l31.25-3.53s3.85,8.66,1.29,20.68A200.33,200.33,0,0,1,271.83,296.9Z" style="fill:#B2D3EF"></path><g style="clip-path:url(#freepik--clip-path--inject-130)"><path d="M271.83,296.9s-1.29,17.31-1.93,30.77-.16,17.63,1.77,22.76,3.52,5.61,4.8,15.54-3.68,32.22-4.16,40.71-4.81,19.55-5.13,22.44.16,6.73-1.76,8.81-4,1.76-10.42.48-7.85-2.08-13.14-1.12-12,1.12-14.11-.32-2.88-4-1.12-4.17a34.13,34.13,0,0,0,15.23-5.93c6.57-4.65,9.29-9.13,12-17s1.6-31.41,1.6-38.14-9.46-21.15-11.22-36.38-.48-34.93-.48-44.71,1.44-32.53,1.44-32.53l31.25-3.53s3.85,8.66,1.29,20.68A200.33,200.33,0,0,1,271.83,296.9Z" style="opacity:0.31"></path></g><path d="M271.83,296.9s-1.29,17.31-1.93,30.77-.16,17.63,1.77,22.76,3.52,5.61,4.8,15.54-3.68,32.22-4.16,40.71-4.81,19.55-5.13,22.44.16,6.73-1.76,8.81-4,1.76-10.42.48-7.85-2.08-13.14-1.12-12,1.12-14.11-.32-2.88-4-1.12-4.17a34.13,34.13,0,0,0,15.23-5.93c6.57-4.65,9.29-9.13,12-17s1.6-31.41,1.6-38.14-9.46-21.15-11.22-36.38-.48-34.93-.48-44.71,1.44-32.53,1.44-32.53l31.25-3.53s3.85,8.66,1.29,20.68A200.33,200.33,0,0,1,271.83,296.9Z" style="fill:none;stroke:#263238;stroke-linecap:round;stroke-linejoin:round"></path><path d="M229.24,439.31s-1.33.42-.1,1.76,2.78,2.57,11.13,3.71,16.08,0,20.41-.42,9.27-.51,11.54-1.65,1.85-1.95,1.44-2.78l-.41-.82s2,2.47-14.94,2.57-23.4-.72-24.94-1.13S229.24,439.31,229.24,439.31Z" style="fill:none;stroke:#263238;stroke-linecap:round;stroke-linejoin:round"></path><path d="M255.94,424a52.84,52.84,0,0,1-11.55,7.32c-7.31,3.5-13.81,4.74-15.66,5.66s.41,3.4,2.89,4.64,8.75,2.58,15.56,2.37a165.42,165.42,0,0,0,18.13-1.75c5.26-.72,7.94,0,8.45-3.71s-2.16-9.48-2.78-11a16.64,16.64,0,0,1-.82-3.91Z" style="fill:#fff;stroke:#263238;stroke-linecap:round;stroke-linejoin:round"></path><path d="M248.89,443.88c-1.68-3-3.76-6.12-5.1-8.05-.8-1.15-1.6-2.25-2.34-3.24-1.75.73-3.42,1.33-4.94,1.84,1.72,2.21,4.36,5.93,6.53,9.46,1.33.08,2.72.1,4.14.06Z" style="fill:#263238"></path><path d="M263.62,442.43a135.35,135.35,0,0,1,5.62-12.62c.82-.14,1.64-.32,2.49-.55-.32-.79-.6-1.42-.75-1.8-.06-.14-.11-.3-.16-.46a26.69,26.69,0,0,1-16.89-1.44c-.62.47-1.38,1-2.28,1.6a29,29,0,0,0,12.9,3.06c.6,0,1.21,0,1.83-.07a119.38,119.38,0,0,0-5.44,12.63Z" style="fill:#263238"></path><path d="M287.14,167.86s4.47,1.17,3.5,13.61,0,20.41-9.33,34.41C276.4,223.23,271,229.09,273,238s9.91,15.75,10.88,29.16-4.66,18.66-8.16,24.3-9.33,23.91-10.11,35.18.2,16.33,1.56,21.19,9.13,13,9.91,24.88a124.17,124.17,0,0,1-2.72,33.82c-2.14,9.53-3.3,18.66-3.3,18.66a22.89,22.89,0,0,1-8.75,1.17c-5.44-.19-7.58-1.36-7.58-1.36s.58-26-1-36.54-4.67-22-7.59-31.88S234.66,331,234.27,316,238,276.52,238,271.27s-.58-15.94,1.94-22.54,9.33-29.94,9.33-35-4.47-9.72-.38-18.08,18.46-22,24.68-25.66S284.42,166.5,287.14,167.86Z" style="fill:#B2D3EF"></path><g style="clip-path:url(#freepik--clip-path-2--inject-130)"><path d="M265.18,426.35a20,20,0,0,0,5.83-1.13s1.16-9.13,3.3-18.66A124.17,124.17,0,0,0,277,372.74c-.78-11.86-8.55-20-9.91-24.88s-2.34-9.91-1.56-21.19,6.61-29.54,10.11-35.18,9.14-10.89,8.16-24.3S274.89,247,273,238s3.45-14.8,8.36-22.15c9.33-14,8.36-22,9.33-34.41s-3.5-13.61-3.5-13.61a9.63,9.63,0,0,0-4.65-.89c-3.21,10.87-9.28,35.14-9.28,35.14s-7,20.14-12.74,32.06.82,21,4.52,33.7-4.93,23.43-8.22,37.4-4.52,27.13.82,38.63,11.1,18.5,10.28,35.76C267.3,391.52,266,413.65,265.18,426.35Z" style="opacity:0.2"></path></g><path d="M287.14,167.86s4.47,1.17,3.5,13.61,0,20.41-9.33,34.41C276.4,223.23,271,229.09,273,238s9.91,15.75,10.88,29.16-4.66,18.66-8.16,24.3-9.33,23.91-10.11,35.18.2,16.33,1.56,21.19,9.13,13,9.91,24.88a124.17,124.17,0,0,1-2.72,33.82c-2.14,9.53-3.3,18.66-3.3,18.66a22.89,22.89,0,0,1-8.75,1.17c-5.44-.19-7.58-1.36-7.58-1.36s.58-26-1-36.54-4.67-22-7.59-31.88S234.66,331,234.27,316,238,276.52,238,271.27s-.58-15.94,1.94-22.54,9.33-29.94,9.33-35-4.47-9.72-.38-18.08,18.46-22,24.68-25.66S284.42,166.5,287.14,167.86Z" style="fill:none;stroke:#263238;stroke-linecap:round;stroke-linejoin:round"></path><path d="M252,260.78s.58,2.52-.39,11.27-2.72,18.08-2.72,19.44" style="fill:none;stroke:#263238;stroke-linecap:round;stroke-linejoin:round"></path><path d="M274.89,263.3l-14.77,3.89s.58,9.92,2.33,15.16,6.81,5.25,9.72,3.31" style="fill:none;stroke:#263238;stroke-linecap:round;stroke-linejoin:round"></path><path d="M265.87,417.67c-.48,3.35-.88,5.72-.88,5.72" style="fill:none;stroke:#263238;stroke-linecap:round;stroke-linejoin:round"></path><path d="M248.68,301.24s-1.9,11.76,3.8,28.83,10.62,32.25,12.89,36.8,2.28,36,1.52,42.87c-.1.87-.2,1.75-.31,2.61" style="fill:none;stroke:#263238;stroke-linecap:round;stroke-linejoin:round"></path><path d="M290.64,181.47c1-12.44-3.5-13.61-3.5-13.61-2.72-1.36-7.39-1.55-13.61,2.14s-20.6,17.3-24.68,25.66.38,13,.38,18.08-6.8,28.38-9.33,35a31.65,31.65,0,0,0-1.64,7.77A47.32,47.32,0,0,0,257.59,259a59.16,59.16,0,0,0,22.4-5.64c-2.67-5.57-5.9-10.09-7-15.36-1.94-8.94,3.45-14.8,8.36-22.15C290.64,201.88,289.67,193.91,290.64,181.47Z" style="fill:#b8b8b8"></path><g style="clip-path:url(#freepik--clip-path-3--inject-130)"><path d="M261.82,258.64A58,58,0,0,0,280,253.39c-2.67-5.57-5.9-10.09-7-15.36-1.94-8.94,3.45-14.8,8.36-22.15,9.33-14,8.36-22,9.33-34.41s-3.5-13.61-3.5-13.61a9.63,9.63,0,0,0-4.65-.89c-3.21,10.87-9.28,35.14-9.28,35.14s-7,20.14-12.74,32.06C256.2,243,258.72,250.28,261.82,258.64Z" style="opacity:0.2"></path></g><path d="M290.64,181.47c1-12.44-3.5-13.61-3.5-13.61-2.72-1.36-7.39-1.55-13.61,2.14s-20.6,17.3-24.68,25.66.38,13,.38,18.08-6.8,28.38-9.33,35a31.65,31.65,0,0,0-1.64,7.77A47.32,47.32,0,0,0,257.59,259a59.16,59.16,0,0,0,22.4-5.64c-2.67-5.57-5.9-10.09-7-15.36-1.94-8.94,3.45-14.8,8.36-22.15C290.64,201.88,289.67,193.91,290.64,181.47Z" style="fill:none;stroke:#263238;stroke-linecap:round;stroke-linejoin:round"></path><path d="M245.41,201.45s-2.64-4.83-5.51-9.08-6.21-4.94-9.08-3.56a5,5,0,0,0-2.64,6.44c.8,2.41,6.43,9.3,8.16,11.25s2.75,3.91,5.85,4.25,5.63-1.95,5.52-5.85S245.41,201.45,245.41,201.45Z" style="fill:#B2D3EF;stroke:#263238;stroke-linecap:round;stroke-linejoin:round"></path><path d="M258.74,183.41a62.05,62.05,0,0,0-5.4,6c-2.07,2.75-2.18,3.9-2.53,4s-6.09,6.89-7.81,8.5-3.33,3.22-3.1,5.17,3.67,4.48,6.09,3.56,5.51-5.63,6.89-8.73a39.9,39.9,0,0,0,2.18-7.7s2.3-.8,3-2.53.8-4.94,1.26-5.51,2-2.41,1.61-3S259.43,182.84,258.74,183.41Z" style="fill:#fff;stroke:#263238;stroke-linecap:round;stroke-linejoin:round"></path><path d="M226.88,195.85a5,5,0,0,1-.19-4.47c1.16-2.14,7.19-7.38,7.38-9.33s-.77-4.08-.39-8.36-.38-5.05-2.13-2.72-1.56,6.42-1.56,7v.58s-2.14-1.75-2.33-3.49-.39-4.86-1-5.25-2.14.58-2.73,2.13a10,10,0,0,0-.58,3.89c0,1.17-2.14,2.72-2.91,6a36.67,36.67,0,0,0-.39,11.27c.39,3.11.77,5.06,1.75,6.81S226.88,195.85,226.88,195.85Z" style="fill:#fff;stroke:#263238;stroke-linecap:round;stroke-linejoin:round"></path><path d="M287.33,181.66s-2.33,7-6.8,16.92-22.94,37.71-25.27,38.29-12-5.83-18.27-13.8-16.72-19.44-16.52-22.36,4.27-6.41,5.83-6.22,6.41,5.06,12.24,10.31a31.74,31.74,0,0,0,12.64,6.8l15.94-36.93S272,165.92,278,165s12.25,3.11,11.47,9.91" style="fill:#b8b8b8"></path><g style="clip-path:url(#freepik--clip-path-4--inject-130)"><path d="M284.56,165.91c-1.8,4.31-19,45.27-23.27,53.05-4.52,8.22-2.35,9.94-16.17,2.71-5.79-3-11.47-6-16.12-8.38,2.74,3.33,5.66,6.8,8,9.78,6.22,8,15.94,14.38,18.27,13.8s20.8-28.38,25.27-38.29,6.8-16.92,6.8-16.92l2.14-6.8A8.56,8.56,0,0,0,284.56,165.91Z" style="opacity:0.2"></path><path d="M251.18,211.6s5.83,3.89,4.86,9.52" style="fill:none;stroke:#263238;stroke-linecap:round;stroke-linejoin:round"></path></g><path d="M287.33,181.66s-2.33,7-6.8,16.92-22.94,37.71-25.27,38.29-12-5.83-18.27-13.8-16.72-19.44-16.52-22.36,4.27-6.41,5.83-6.22,6.41,5.06,12.24,10.31a31.74,31.74,0,0,0,12.64,6.8l15.94-36.93S272,165.92,278,165s12.25,3.11,11.47,9.91" style="fill:none;stroke:#263238;stroke-linecap:round;stroke-linejoin:round"></path></g></svg>